<svg width="34" height="32" viewBox="0 0 34 32" fill="none" xmlns="http://www.w3.org/2000/svg">
<mask id="path-1-inside-1_101_8" fill="white">
<path d="M2.91639 3.83352C6.61699 0.132919 12.5455 0.0168239 16.3853 3.48618L16.7499 3.83283L17.1145 3.48618C20.9542 0.0167308 26.8827 0.132886 30.5833 3.83352C34.2838 7.53416 34.3993 13.462 30.93 17.3017L30.5833 17.6663L16.7499 31.4998L2.91639 17.6663C-0.903234 13.8464 -0.903234 7.65341 2.91639 3.83352Z"/>
</mask>
<path d="M2.91639 3.83352C6.61699 0.132919 12.5455 0.0168239 16.3853 3.48618L16.7499 3.83283L17.1145 3.48618C20.9542 0.0167308 26.8827 0.132886 30.5833 3.83352C34.2838 7.53416 34.3993 13.462 30.93 17.3017L30.5833 17.6663L16.7499 31.4998L2.91639 17.6663C-0.903234 13.8464 -0.903234 7.65341 2.91639 3.83352Z" fill="#FF69C3"/>
<path d="M2.91639 3.83352L-0.619146 0.297987L-0.61927 0.298111L2.91639 3.83352ZM16.3853 3.48618L19.8304 -0.137444L19.7844 -0.1812L19.7373 -0.223773L16.3853 3.48618ZM16.7499 3.83283L13.3047 7.45646L16.7499 10.732L20.195 7.45646L16.7499 3.83283ZM17.1145 3.48618L13.7624 -0.223728L13.7153 -0.181176L13.6693 -0.137444L17.1145 3.48618ZM30.5833 3.83352L34.1189 0.298074L34.1189 0.297987L30.5833 3.83352ZM30.93 17.3017L34.5536 20.7469L34.5973 20.7009L34.6399 20.6538L30.93 17.3017ZM30.5833 17.6663L34.1189 21.2018L34.1635 21.1572L34.2069 21.1115L30.5833 17.6663ZM16.7499 31.4998L13.2143 35.0353L16.7499 38.5708L20.2854 35.0353L16.7499 31.4998ZM2.91639 17.6663L-0.61927 21.2017L-0.619146 21.2018L2.91639 17.6663ZM2.91639 3.83352L6.45192 7.36905C8.26015 5.56082 11.1596 5.50329 13.0332 7.19614L16.3853 3.48618L19.7373 -0.223773C13.9313 -5.46964 4.97383 -5.29499 -0.619146 0.297987L2.91639 3.83352ZM16.3853 3.48618L12.9401 7.10981L13.3047 7.45646L16.7499 3.83283L20.195 0.209204L19.8304 -0.137444L16.3853 3.48618ZM16.7499 3.83283L20.195 7.45646L20.5596 7.10981L17.1145 3.48618L13.6693 -0.137444L13.3047 0.209204L16.7499 3.83283ZM17.1145 3.48618L20.4666 7.19609C22.3401 5.50325 25.2395 5.56075 27.0478 7.36905L30.5833 3.83352L34.1189 0.297987C28.5259 -5.29497 19.5684 -5.46979 13.7624 -0.223728L17.1145 3.48618ZM30.5833 3.83352L27.0477 7.36897C28.8556 9.17693 28.9132 12.0757 27.2201 13.9496L30.93 17.3017L34.6399 20.6538C39.8855 14.8482 39.712 5.89139 34.1189 0.298074L30.5833 3.83352ZM30.93 17.3017L27.3063 13.8565L26.9597 14.2211L30.5833 17.6663L34.2069 21.1115L34.5536 20.7469L30.93 17.3017ZM30.5833 17.6663L27.0478 14.1308L13.2143 27.9642L16.7499 31.4998L20.2854 35.0353L34.1189 21.2018L30.5833 17.6663ZM16.7499 31.4998L20.2854 27.9642L6.45192 14.1308L2.91639 17.6663L-0.619146 21.2018L13.2143 35.0353L16.7499 31.4998ZM2.91639 17.6663L6.45205 14.1309C4.58488 12.2636 4.58488 9.23623 6.45205 7.36893L2.91639 3.83352L-0.61927 0.298111C-6.39135 6.07059 -6.39135 15.4292 -0.61927 21.2017L2.91639 17.6663Z" fill="#E8048D" mask="url(#path-1-inside-1_101_8)"/>
</svg>
