<svg width="57" height="90" viewBox="0 0 57 90" fill="none" xmlns="http://www.w3.org/2000/svg">
<path d="M27.5065 1.0184C27.6422 -0.162799 29.3578 -0.162809 29.4935 1.01839L33.4358 35.3443C33.479 35.7208 33.7313 36.0405 34.0874 36.17L55.4165 43.9284C56.294 44.2476 56.294 45.4887 55.4165 45.8079L34.0874 53.5663C33.7313 53.6959 33.479 54.0155 33.4358 54.392L29.4935 88.7179C29.3578 89.8991 27.6422 89.8991 27.5065 88.7179L23.5642 54.392C23.521 54.0156 23.2687 53.6959 22.9126 53.5663L1.58354 45.8079C0.705989 45.4887 0.705989 44.2476 1.58354 43.9284L22.9126 36.17C23.2687 36.0405 23.521 35.7208 23.5642 35.3443L27.5065 1.0184Z" fill="white" fill-opacity="0.3"/>
</svg>
